<?xml version="1.0" encoding="UTF-8" standalone="no"?>
<svg
   xmlns:dc="http://purl.org/dc/elements/1.1/"
   xmlns:cc="http://creativecommons.org/ns#"
   xmlns:rdf="http://www.w3.org/1999/02/22-rdf-syntax-ns#"
   xmlns:svg="http://www.w3.org/2000/svg"
   xmlns="http://www.w3.org/2000/svg"
   xmlns:xlink="http://www.w3.org/1999/xlink"
   xmlns:sodipodi="http://sodipodi.sourceforge.net/DTD/sodipodi-0.dtd"
   xmlns:inkscape="http://www.inkscape.org/namespaces/inkscape"
   version="1.1"
   x="0px"
   y="0px"
   viewBox="0 0 100 125"
   enable-background="new 0 0 100 100"
   xml:space="preserve"
   id="svg26"
   sodipodi:docname="logo.svg"
   inkscape:version="0.92.2 (5c3e80d, 2017-08-06)"
   inkscape:export-filename="/home/andrei/Dev/Base64CertificateViewer/app/images/logo.svg.png"
   inkscape:export-xdpi="129.96394"
   inkscape:export-ydpi="129.96394"><metadata
     id="metadata32"><rdf:RDF><cc:Work
         rdf:about=""><dc:format>image/svg+xml</dc:format><dc:type
           rdf:resource="http://purl.org/dc/dcmitype/StillImage" /><dc:title></dc:title></cc:Work></rdf:RDF></metadata><defs
     id="defs30"><linearGradient
       inkscape:collect="always"
       id="linearGradient4591"><stop
         style="stop-color:#00feff;stop-opacity:1;"
         offset="0"
         id="stop4587" /><stop
         style="stop-color:#e5ffff;stop-opacity:1"
         offset="1"
         id="stop4589" /></linearGradient><linearGradient
       inkscape:collect="always"
       id="linearGradient4545"><stop
         style="stop-color:#3c5f75;stop-opacity:1;"
         offset="0"
         id="stop4541" /><stop
         style="stop-color:#3c5f75;stop-opacity:0;"
         offset="1"
         id="stop4543" /></linearGradient><radialGradient
       inkscape:collect="always"
       xlink:href="#linearGradient4545"
       id="radialGradient4547"
       cx="74.0315"
       cy="60.105083"
       fx="74.0315"
       fy="60.105083"
       r="17.0825"
       gradientTransform="matrix(1,0,0,0.96092976,0,2.3483201)"
       gradientUnits="userSpaceOnUse" /><linearGradient
       inkscape:collect="always"
       xlink:href="#linearGradient4591"
       id="linearGradient4593"
       x1="7.8831477"
       y1="19.922373"
       x2="91.694435"
       y2="82.561996"
       gradientUnits="userSpaceOnUse" /></defs><sodipodi:namedview
     pagecolor="#ffffff"
     bordercolor="#666666"
     borderopacity="1"
     objecttolerance="10"
     gridtolerance="10"
     guidetolerance="10"
     inkscape:pageopacity="0"
     inkscape:pageshadow="2"
     inkscape:window-width="1920"
     inkscape:window-height="1053"
     id="namedview28"
     showgrid="false"
     inkscape:zoom="5.3400704"
     inkscape:cx="73.575166"
     inkscape:cy="59.797325"
     inkscape:window-x="0"
     inkscape:window-y="27"
     inkscape:window-maximized="1"
     inkscape:current-layer="svg26"
     inkscape:pagecheckerboard="true" /><path
     style="fill:#000000"
     inkscape:connector-curvature="0"
     id="path2"
     d="m 21.117,69.304 h -2.229 l -0.689,-2.117 c -0.047,-0.143 -0.179,-0.24 -0.328,-0.24 -0.152,0 -0.284,0.098 -0.331,0.24 l -0.687,2.117 h -2.229 c -0.149,0 -0.28,0.098 -0.327,0.238 -0.046,0.145 0.003,0.299 0.126,0.387 l 1.802,1.311 -0.689,2.117 c -0.045,0.145 0.006,0.301 0.127,0.389 0.12,0.09 0.283,0.09 0.408,0 l 1.801,-1.309 1.801,1.309 c 0.06,0.043 0.133,0.066 0.204,0.066 0.072,0 0.144,-0.023 0.205,-0.066 0.12,-0.088 0.171,-0.244 0.126,-0.389 l -0.689,-2.117 1.802,-1.311 c 0.122,-0.088 0.171,-0.242 0.126,-0.387 -0.049,-0.141 -0.18,-0.238 -0.33,-0.238 z" /><path
     style="fill:#000000"
     inkscape:connector-curvature="0"
     id="path4"
     d="m 34.783,69.304 h -2.229 l -0.689,-2.117 c -0.047,-0.143 -0.179,-0.24 -0.328,-0.24 -0.152,0 -0.284,0.098 -0.331,0.24 l -0.687,2.117 H 28.29 c -0.149,0 -0.28,0.098 -0.327,0.238 -0.046,0.145 0.003,0.299 0.126,0.387 l 1.802,1.311 -0.691,2.116 c -0.045,0.145 0.006,0.301 0.127,0.389 0.12,0.09 0.283,0.09 0.408,0 l 1.801,-1.309 1.801,1.309 c 0.06,0.043 0.133,0.066 0.204,0.066 0.072,0 0.144,-0.023 0.205,-0.066 0.12,-0.088 0.171,-0.244 0.126,-0.389 l -0.689,-2.117 1.802,-1.311 c 0.122,-0.088 0.171,-0.242 0.126,-0.387 -0.047,-0.14 -0.178,-0.237 -0.328,-0.237 z" /><path
     style="fill:#000000"
     inkscape:connector-curvature="0"
     id="path6"
     d="m 16.359,43.563 h 41.599 c 1.148,0 2.08,-0.931 2.08,-2.08 0,-1.149 -0.932,-2.08 -2.08,-2.08 H 16.359 c -1.149,0 -2.08,0.931 -2.08,2.08 0,1.149 0.931,2.08 2.08,2.08 z" /><path
     style="fill:#000000"
     inkscape:connector-curvature="0"
     id="path8"
     d="m 16.359,34.194 h 56.173 c 1.148,0 2.08,-0.931 2.08,-2.08 0,-1.149 -0.932,-2.08 -2.08,-2.08 H 16.359 c -1.149,0 -2.08,0.931 -2.08,2.08 0,1.149 0.931,2.08 2.08,2.08 z" /><path
     style="fill:#000000"
     inkscape:connector-curvature="0"
     id="path10"
     d="M 48.59,47.731 H 16.36 c -1.149,0 -2.08,0.931 -2.08,2.08 0,1.149 0.931,2.08 2.08,2.08 h 32.23 c 1.148,0 2.08,-0.931 2.08,-2.08 0,-1.149 -0.932,-2.08 -2.08,-2.08 z" /><path
     style="fill:#000000"
     inkscape:connector-curvature="0"
     id="path12"
     d="M 38.18,56.761 H 16.36 c -1.149,0 -2.08,0.932 -2.08,2.08 0,1.148 0.931,2.08 2.08,2.08 h 21.82 c 1.148,0 2.08,-0.932 2.08,-2.08 0,-1.148 -0.932,-2.08 -2.08,-2.08 z" /><path
     style="fill:#000000"
     inkscape:connector-curvature="0"
     id="path14"
     d="M 91.939,14.89 H 8.061 c -2.87,0 -5.2,2.33 -5.2,5.2 v 59.82 c 0,2.87 2.33,5.2 5.2,5.2 H 91.94 c 2.881,0 5.2,-2.33 5.2,-5.2 V 20.09 c 0,-2.87 -2.32,-5.2 -5.201,-5.2 z m 1.421,45.839 c -0.171,1.7 -1.07,3.03 -1.73,3.99 -0.19,0.29 -0.5,0.76 -0.56,0.92 -0.02,0.061 -0.05,0.211 -0.07,0.611 -0.01,0.12 -0.01,0.27 -0.021,0.42 -0.05,1.41 -0.109,3.22 -1.26,4.82 -1.2,1.609 -2.89,2.22 -4.12,2.67 -0.34,0.12 -0.899,0.33 -1.05,0.43 -0.12,0.1 -0.47,0.56 -0.68,0.83 -0.82,1.05 -1.931,2.5 -3.87,3.12 l -0.16,0.04 c -0.229,0.06 -0.53,0.13 -0.88,0.17 -0.4,0.06 -0.9,0.07 -1.41,0.02 -0.82,-0.05 -1.689,-0.3 -2.39,-0.489 -0.351,-0.101 -0.931,-0.271 -1.12,-0.271 -0.21,0 -0.79,0.17 -1.18,0.28 -0.82,0.229 -1.841,0.52 -2.971,0.52 -0.64,0 -1.26,-0.09 -1.84,-0.279 -1.91,-0.61 -3.03,-2.051 -3.84,-3.11 -0.22,-0.28 -0.58,-0.74 -0.72,-0.85 -0.13,-0.08 -0.69,-0.29 -1.021,-0.41 -1.229,-0.45 -2.92,-1.061 -4.09,-2.65 -0.83,-1.13 -1.11,-2.37 -1.21,-3.46 L 42.33,79.91 H 8.061 V 20.09 H 91.94 v 20.16 l -6.96,5.57 c 0.2,0.08 0.44,0.17 0.62,0.23 1.23,0.45 2.92,1.06 4.09,2.64 1.181,1.64 1.24,3.43 1.29,4.75 L 91,53.99 c 0.02,0.359 0.04,0.5 0.06,0.55 0.051,0.17 0.36,0.63 0.57,0.93 0.58,0.87 1.3,1.93 1.61,3.3 0.1,0.4 0.16,0.87 0.16,1.341 0,0.209 -0.01,0.409 -0.04,0.618 z" /><g
     id="g4539"
     style="stroke:url(#radialGradient4547)"><path
       d="m 91.01,59.28 c -0.03,-0.12 -0.06,-0.24 -0.1,-0.351 -0.15,-0.479 -0.38,-0.92 -0.63,-1.34 -0.091,-0.15 -0.19,-0.29 -0.29,-0.44 -0.08,-0.13 -0.16,-0.25 -0.25,-0.38 C 89.559,56.499 89.38,56.24 89.24,55.99 89.09,55.729 88.96,55.479 88.88,55.24 88.83,55.08 88.79,54.889 88.77,54.66 88.75,54.58 88.75,54.5 88.741,54.41 88.73,54.33 88.73,54.24 88.72,54.149 88.71,53.95 88.7,53.78 88.69,53.61 88.651,52.38 88.611,51.099 87.84,50.04 87.75,49.91 87.651,49.8 87.54,49.69 87.37,49.51 87.18,49.36 86.99,49.23 86.32,48.75 85.54,48.46 84.82,48.2 c -0.551,-0.19 -0.971,-0.35 -1.29,-0.53 -0.11,-0.06 -0.21,-0.12 -0.301,-0.18 0,0 -0.01,0 -0.01,-0.01 -0.06,-0.04 -0.109,-0.08 -0.16,-0.13 -0.05,-0.04 -0.09,-0.08 -0.13,-0.12 -0.29,-0.28 -0.569,-0.65 -0.87,-1.03 -0.699,-0.91 -1.5,-1.94 -2.729,-2.33 l -0.01,-0.01 c -0.061,-0.02 -0.131,-0.04 -0.19,-0.05 -0.12,-0.03 -0.229,-0.05 -0.35,-0.07 -0.19,-0.03 -0.4,-0.05 -0.61,-0.05 -0.19,0 -0.38,0.01 -0.57,0.04 -0.199,0.03 -0.399,0.06 -0.6,0.1 0,0 -0.01,0.01 -0.021,0 -0.189,0.05 -0.38,0.09 -0.569,0.14 -0.2,0.05 -0.391,0.1 -0.58,0.16 -0.66,0.19 -1.271,0.36 -1.79,0.36 -0.55,0 -1.2,-0.18 -1.87,-0.39 -0.01,0 -0.03,-0.01 -0.05,-0.02 -0.04,-0.01 -0.101,-0.02 -0.16,-0.04 -0.021,-0.01 -0.05,-0.02 -0.08,-0.02 -0.03,-0.01 -0.06,-0.02 -0.09,-0.03 -0.05,-0.02 -0.101,-0.03 -0.12,-0.03 -0.01,0 -0.01,0 -0.01,0 -0.66,-0.17 -1.5,-0.31 -2.25,-0.24 -0.141,0.01 -0.271,0.04 -0.4,0.07 -0.08,0.02 -0.16,0.04 -0.24,0.07 -1.26,0.4 -2.05,1.43 -2.76,2.33 -0.229,0.3 -0.43,0.56 -0.62,0.77 -0.09,0.1 -0.17,0.19 -0.25,0.27 -0.09,0.09 -0.17,0.17 -0.26,0.23 -0.42,0.3 -1,0.52 -1.62,0.74 -0.8,0.29 -1.68,0.61 -2.39,1.19 -0.12,0.1 -0.23,0.2 -0.34,0.31 -0.11,0.11 -0.21,0.23 -0.301,0.35 -0.77,1.04 -0.81,2.33 -0.85,3.46 -0.03,0.66 -0.05,1.29 -0.2,1.76 -0.149,0.45 -0.49,0.96 -0.85,1.49 -0.65,0.95 -1.38,2.021 -1.38,3.351 0,0.119 0.01,0.229 0.02,0.35 0.03,0.34 0.11,0.65 0.21,0.939 0,0.011 0.01,0.021 0.01,0.021 0.101,0.29 0.23,0.54 0.351,0.77 0.04,0.08 0.09,0.16 0.13,0.23 0.09,0.15 0.18,0.29 0.25,0.4 0.15,0.229 0.28,0.43 0.42,0.64 0.21,0.31 0.38,0.57 0.521,0.81 0.14,0.24 0.239,0.45 0.31,0.65 l 0.01,0.01 c 0.03,0.09 0.05,0.19 0.07,0.29 0.07,0.32 0.1,0.69 0.11,1.08 0.01,0.13 0.01,0.26 0.02,0.4 0.04,1.14 0.08,2.43 0.84,3.449 0.76,1.04 1.97,1.48 3.03,1.86 0.55,0.2 0.97,0.36 1.29,0.53 0.11,0.06 0.21,0.12 0.3,0.18 0.1,0.07 0.2,0.16 0.3,0.26 0.061,0.061 0.12,0.12 0.181,0.19 0.029,0.03 0.069,0.07 0.1,0.12 0.16,0.17 0.31,0.359 0.46,0.56 0.04,0.05 0.09,0.101 0.13,0.16 0.71,0.92 1.5,1.95 2.74,2.34 0.17,0.061 0.35,0.09 0.52,0.12 0.2,0.04 0.41,0.05 0.62,0.05 0.08,0 0.16,0 0.24,-0.02 0.21,-0.01 0.41,-0.04 0.62,-0.07 0.1,-0.02 0.21,-0.03 0.31,-0.05 0.011,0 0.011,0 0.021,0 0.3,-0.06 0.59,-0.14 0.87,-0.21 0.1,-0.03 0.189,-0.05 0.279,-0.08 0.16,-0.05 0.33,-0.09 0.49,-0.14 0.28,-0.08 0.561,-0.141 0.82,-0.181 0.18,-0.029 0.34,-0.05 0.5,-0.05 0.51,0 1.11,0.17 1.74,0.351 0.479,0.14 1.01,0.29 1.5,0.359 0.149,0.03 0.3,0.05 0.449,0.061 h 0.051 c 0.29,0.029 0.489,0.04 0.689,0.02 0.061,-0.01 0.11,-0.02 0.17,-0.02 0.05,0 0.101,-0.011 0.15,-0.021 0.2,-0.03 0.34,-0.07 0.45,-0.1 l 0.1,-0.021 c 0.45,-0.14 0.85,-0.38 1.2,-0.67 0.12,-0.09 0.24,-0.189 0.35,-0.3 0.11,-0.1 0.221,-0.21 0.32,-0.33 0.31,-0.33 0.59,-0.689 0.85,-1.03 0.181,-0.239 0.341,-0.449 0.5,-0.63 0.04,-0.06 0.091,-0.109 0.141,-0.16 0.16,-0.189 0.33,-0.359 0.5,-0.489 0.41,-0.29 1,-0.5 1.62,-0.73 0.529,-0.189 1.1,-0.399 1.63,-0.68 0.33,-0.19 0.66,-0.4 0.939,-0.67 0.061,-0.04 0.11,-0.09 0.16,-0.15 0.11,-0.11 0.21,-0.229 0.311,-0.36 l 0.01,-0.01 c 0.74,-1.029 0.78,-2.31 0.819,-3.45 0.011,-0.27 0.021,-0.439 0.021,-0.579 0.03,-0.421 0.07,-0.851 0.18,-1.181 0.04,-0.109 0.09,-0.229 0.15,-0.35 0.08,-0.17 0.189,-0.36 0.31,-0.55 0.11,-0.19 0.25,-0.381 0.38,-0.58 0.58,-0.851 1.221,-1.801 1.351,-2.94 0.01,-0.01 0.01,-0.03 0.01,-0.04 0.01,-0.07 0.01,-0.13 0.01,-0.189 0.011,-0.061 0.011,-0.11 0.011,-0.17 0,-0.28 -0.03,-0.57 -0.091,-0.811 C 91.02,59.29 91.02,59.29 91.01,59.28 Z M 74.03,69.76 c -2.65,0 -5.061,-1.06 -6.811,-2.79 -0.12,-0.12 -0.229,-0.24 -0.34,-0.359 V 66.6 c -0.78,-0.859 -1.41,-1.859 -1.85,-2.96 -0.11,-0.27 -0.2,-0.56 -0.28,-0.84 -0.061,-0.229 -0.12,-0.45 -0.17,-0.68 -0.141,-0.65 -0.21,-1.33 -0.21,-2.021 0,-0.67 0.069,-1.31 0.189,-1.939 0.101,-0.471 0.23,-0.931 0.391,-1.37 0.05,-0.15 0.109,-0.3 0.17,-0.44 0.069,-0.14 0.13,-0.29 0.2,-0.439 0.409,-0.84 0.939,-1.61 1.56,-2.3 0.1,-0.11 0.21,-0.221 0.32,-0.33 0.109,-0.11 0.22,-0.221 0.33,-0.32 0.01,0 0.01,-0.01 0.01,-0.01 0.43,-0.391 0.89,-0.74 1.38,-1.051 0.01,0 0.01,-0.01 0.01,-0.01 1.48,-0.909 3.23,-1.44 5.101,-1.44 1.439,0 2.81,0.31 4.04,0.89 0.46,0.2 0.899,0.44 1.31,0.72 0.26,0.16 0.51,0.34 0.74,0.54 0.24,0.19 0.46,0.391 0.68,0.61 0.79,0.78 1.45,1.689 1.94,2.7 0,0.01 0.01,0.01 0.01,0.01 0.6,1.27 0.939,2.68 0.939,4.18 0,5.339 -4.329,9.66 -9.659,9.66 z"
       id="path16"
       inkscape:connector-curvature="0"
       style="fill:#52b86a;stroke:url(#radialGradient4547);fill-opacity:1" /></g><path
     style="fill:#000000"
     inkscape:connector-curvature="0"
     id="path18"
     d="m 79.246,54.919 c -0.684,-0.513 -1.802,-0.352 -2.312,0.328 l -4.65,6.179 -1.296,-1.324 c -0.597,-0.611 -1.718,-0.626 -2.337,-0.024 -0.312,0.307 -0.488,0.719 -0.494,1.16 -0.006,0.441 0.161,0.858 0.47,1.174 l 2.64,2.697 c 0.309,0.315 0.739,0.496 1.18,0.496 L 72.55,65.6 c 0.479,-0.027 0.922,-0.265 1.218,-0.653 l 5.808,-7.714 c 0.267,-0.357 0.378,-0.794 0.313,-1.224 -0.062,-0.437 -0.289,-0.823 -0.643,-1.09 z" /><path
     style="opacity:0.93699999;fill:url(#linearGradient4593);fill-opacity:1;stroke:#52b86a;stroke-width:0.18726344;stroke-opacity:1"
     d="M 8.0704112,49.978156 V 20.109636 H 49.923792 91.777173 v 10.078269 10.078269 l -3.480821,2.778774 -3.480823,2.778772 0.999582,0.40874 c 1.836434,0.750938 2.533671,1.192123 3.391036,2.145719 1.052182,1.170281 1.438196,2.2291 1.617915,4.437869 0.127386,1.565614 0.208304,1.82821 0.932896,3.027449 2.019031,3.341611 2.034778,5.20492 0.07088,8.387232 -0.818166,1.325761 -0.867219,1.483913 -1.002682,3.232729 -0.209203,2.700754 -0.853284,4.021688 -2.567232,5.265078 -0.545154,0.395484 -1.607009,0.943666 -2.359677,1.218177 -1.245002,0.454078 -1.463917,0.615928 -2.426078,1.79368 -2.355999,2.883901 -4.308535,3.48419 -8.130468,2.499638 -1.284307,-0.330846 -1.313389,-0.3299 -3.101532,0.100822 -3.50745,0.844866 -5.219265,0.252611 -7.691,-2.660931 -0.767121,-0.904239 -1.243504,-1.285105 -1.923699,-1.537993 -1.674073,-0.622398 -3.079609,-1.472415 -3.813703,-2.306391 -0.748765,-0.850642 -1.49107,-2.506099 -1.49107,-3.325325 0,-0.253624 -0.0721,-0.461134 -0.160221,-0.461134 -0.08812,0 -3.479931,2.654323 -7.537353,5.898495 L 42.24599,79.846068 25.1582,79.846373 8.0704102,79.846676 Z M 72.208142,76.161751 c 1.28262,-0.322475 2.594863,-0.355332 3.311378,-0.08291 1.154942,0.439109 2.733207,0.600199 3.64096,0.371623 0.902012,-0.227128 1.616317,-0.827145 3.539915,-2.973525 0.571731,-0.637944 1.093516,-0.973685 2.15353,-1.385672 2.868101,-1.114723 3.590387,-2.000519 3.906831,-4.791237 0.09927,-0.875456 0.312441,-1.844545 0.473718,-2.153529 0.161277,-0.308985 0.293749,-0.671096 0.294384,-0.80469 5.62e-4,-0.133596 0.334048,-0.849878 0.740919,-1.591739 1.212304,-2.210438 1.195495,-3.330142 -0.08184,-5.451363 -0.363922,-0.604354 -0.707273,-1.357641 -0.763003,-1.673972 -0.05573,-0.316331 -0.184039,-0.67481 -0.285131,-0.796619 -0.101092,-0.121807 -0.266989,-0.95357 -0.368664,-1.84836 -0.101673,-0.894789 -0.297142,-1.894065 -0.434376,-2.220611 -0.398946,-0.949287 -1.383532,-1.757563 -2.910518,-2.389326 -2.045067,-0.846112 -2.341297,-1.05304 -3.432024,-2.397384 -1.356799,-1.672283 -2.339576,-2.267601 -3.743458,-2.267601 -0.601531,0 -1.797682,0.176565 -2.658113,0.392367 l -1.564416,0.392368 -1.513691,-0.392368 c -1.653321,-0.428562 -3.262111,-0.504607 -4.086297,-0.193158 -0.289942,0.109566 -1.327716,1.015453 -2.306168,2.013082 -1.539502,1.569678 -1.942871,1.87472 -2.996215,2.265843 -2.697509,1.001627 -3.745269,2.239571 -3.745269,4.425099 0,1.113116 -0.643259,3.072335 -1.6114,4.90795 -1.14259,2.166374 -1.13833,2.992369 0.02692,5.220023 0.896751,1.714361 1.584485,3.846824 1.584485,4.913025 0,1.007159 0.382785,2.027621 1.055295,2.813298 0.470548,0.549729 1.077724,0.91795 2.510774,1.522654 1.767001,0.745621 1.96209,0.883061 2.994596,2.109676 2.161297,2.567622 3.07597,2.869316 6.266881,2.067061 z m -55.241903,-2.954083 0.909424,-0.646575 0.880814,0.646575 c 1.463758,1.074497 1.778018,0.821096 1.175325,-0.947712 l -0.310734,-0.911952 0.625069,-0.479067 c 1.299861,-0.99624 1.370374,-1.07439 1.250716,-1.386214 -0.09372,-0.244216 -0.375412,-0.310063 -1.326467,-0.310063 h -1.207484 l -0.357985,-1.076765 c -0.259833,-0.78154 -0.460626,-1.09201 -0.732348,-1.132371 -0.309881,-0.04603 -0.433421,0.139444 -0.717219,1.076765 l -0.342854,1.132371 h -1.193441 c -0.938513,0 -1.218885,0.0663 -1.312554,0.310404 -0.117887,0.307209 0.142324,0.595 1.327866,1.468599 l 0.508262,0.374526 -0.381945,1.098737 c -0.570164,1.640186 -0.272391,1.833524 1.205555,0.782742 z m 13.670232,0 0.909425,-0.646575 0.880812,0.646575 c 1.462692,1.073715 1.777939,0.820864 1.176666,-0.943774 -0.343404,-1.007839 -0.362838,-0.973004 1.155856,-2.071879 0.366789,-0.265395 0.494422,-0.483703 0.410562,-0.702238 -0.09694,-0.252612 -0.367303,-0.317117 -1.329174,-0.317117 H 32.633134 L 32.27515,68.095895 c -0.259834,-0.78154 -0.460627,-1.09201 -0.73235,-1.132371 -0.30988,-0.04603 -0.433421,0.139444 -0.717219,1.076765 l -0.342853,1.132371 h -1.193441 c -0.938514,0 -1.218885,0.0663 -1.312554,0.310404 -0.117888,0.307209 0.142324,0.595 1.327866,1.468599 l 0.508261,0.374526 -0.381944,1.098737 c -0.570165,1.640186 -0.272391,1.833524 1.205555,0.782742 z m 9.006558,-12.911296 c 0.518791,-0.518791 0.636695,-0.780094 0.636695,-1.411064 0,-0.425902 -0.143627,-0.993573 -0.319171,-1.261488 -0.654473,-0.998851 -0.64125,-0.997811 -12.695638,-0.997811 -12.230361,0 -12.149264,-0.007 -12.721477,1.099528 -0.500621,0.968094 -0.383659,1.843813 0.343363,2.570835 l 0.636695,0.636696 h 11.741419 11.741418 z m 10.005997,-8.636015 c 0.590601,-0.30541 1.117451,-1.141124 1.117451,-1.772548 0,-0.214413 -0.119764,-0.676478 -0.266142,-1.02681 -0.53815,-1.287972 0.407848,-1.223636 -17.992044,-1.223636 -17.93301,0 -17.255876,-0.03682 -17.965923,0.976914 -0.160745,0.229495 -0.292263,0.786149 -0.292263,1.23701 0,0.682574 0.106541,0.926284 0.636696,1.45644 l 0.636695,0.636695 h 16.788105 c 14.639758,0 16.858399,-0.03635 17.337425,-0.284065 z m 9.77482,-8.661365 c 0.530162,-0.530192 0.612172,-0.739219 0.612172,-1.560285 0,-0.834176 -0.07347,-1.013724 -0.611561,-1.494506 l -0.611559,-0.54643 h -21.644702 -21.6447 l -0.636695,0.636696 c -0.726879,0.726878 -0.843994,1.602722 -0.343682,2.570217 0.591397,1.143637 -0.521344,1.092679 22.877272,1.047666 L 58.811675,43.6112 Z m 13.995138,-8.985336 c 1.399259,-0.705868 1.669768,-2.344469 0.568794,-3.445443 L 73.454165,30.034599 H 44.48883 15.523496 l -0.636695,0.636696 c -0.504041,0.50404 -0.63655,0.786908 -0.635996,1.35766 9.55e-4,0.975673 0.581748,1.879837 1.349828,2.101348 0.374793,0.10809 11.680731,0.184072 28.892519,0.194175 26.567659,0.0156 28.316011,-0.0032 28.925832,-0.310822 z"
     id="path4555"
     inkscape:connector-curvature="0" /><path
     style="opacity:0.93699999;fill:#00feff;fill-opacity:1;stroke:#52b86a;stroke-width:0.18726344;stroke-opacity:1"
     d="m 71.833615,68.892494 c -2.174407,-0.593387 -3.764127,-1.658746 -5.076383,-3.401964 -1.138821,-1.512825 -1.607646,-2.815771 -1.713951,-4.76337 -0.154998,-2.83968 0.550174,-4.820268 2.432735,-6.832733 5.170777,-5.527577 14.418666,-2.560999 15.538586,4.984536 0.527155,3.551741 -1.461503,7.49101 -4.650469,9.211969 -1.856868,1.002077 -4.573765,1.335552 -6.530518,0.801562 z m 1.598403,-3.517875 c 0.486147,-0.385666 6.217121,-8.030176 6.416908,-8.559472 0.533273,-1.412802 -0.914139,-2.698675 -2.397131,-2.129598 -0.171187,0.06569 -1.327558,1.477189 -2.569712,3.136662 -1.242154,1.659474 -2.325723,3.092126 -2.40793,3.183671 -0.08277,0.09217 -0.542394,-0.179421 -1.029974,-0.608607 -0.69551,-0.612211 -1.027038,-0.775051 -1.57794,-0.775051 -1.331751,0 -2.110291,1.140984 -1.597186,2.340745 0.132156,0.309011 0.956882,1.257054 1.832726,2.106762 1.444609,1.4015 1.659759,1.54437 2.317562,1.538968 0.398815,-0.0033 0.85452,-0.108612 1.012677,-0.23408 z"
     id="path4557"
     inkscape:connector-curvature="0" /><g
     id="g4585"
     style="stroke:#193882;stroke-opacity:1;fill:#002275;fill-opacity:1"><path
       inkscape:connector-curvature="0"
       id="path4561"
       d="M 6.7232013,84.829141 C 6.239723,84.698419 5.6919774,84.476306 5.5059888,84.335553 4.5075203,83.579934 3.8582708,82.838371 3.4613538,82.000206 L 3.0179568,81.063889 V 49.978156 18.892424 l 0.443397,-0.936317 C 3.9977756,16.82335 4.8792782,15.954231 6.0105133,15.442758 6.8500657,15.063165 7.0137251,15.061733 50.027472,15.057636 l 43.174272,-0.0041 0.972642,0.484688 c 0.534952,0.266578 1.264946,0.826181 1.622209,1.243562 1.318667,1.540565 1.233649,-0.880144 1.17932,33.578985 l -0.049,31.077658 -0.404933,0.749053 c -0.509831,0.943093 -1.412862,1.799042 -2.497651,2.367422 l -0.842685,0.44153 -42.789698,0.0352 C 16.313312,85.059649 7.4232967,85.018428 6.7232013,84.829141 Z M 49.593223,74.231881 c 3.992624,-3.191132 7.31314,-5.803457 7.378924,-5.805166 0.06578,-0.0017 0.171885,0.270764 0.235783,0.605497 0.198248,1.038559 0.969931,2.479497 1.728067,3.226768 0.419176,0.413169 1.476623,1.065949 2.504497,1.546072 1.555908,0.726769 1.978613,1.036217 3.370742,2.467606 2.50528,2.575932 4.027254,3.039224 7.441312,2.265146 l 1.861094,-0.42197 1.76257,0.416481 c 3.311775,0.782544 5.029634,0.24151 7.422696,-2.337753 1.321294,-1.424102 1.606468,-1.632134 3.08474,-2.250304 1.889181,-0.789999 3.160376,-1.818115 3.787357,-3.063128 0.505334,-1.003455 0.857114,-2.503971 0.857114,-3.65601 0,-1.041651 0.283513,-1.830967 1.125942,-3.134684 1.753816,-2.714153 1.726419,-5.283591 -0.08656,-8.117726 -0.761509,-1.19043 -0.98036,-1.898874 -1.10209,-3.567575 -0.22466,-3.079689 -1.653685,-5.012096 -4.516673,-6.107698 -0.571189,-0.218583 -1.038528,-0.46223 -1.038528,-0.541437 0,-0.07921 1.4705,-1.310473 3.267778,-2.736147 l 3.267777,-2.592133 0.0093,-10.252673 0.0093,-10.252674 H 49.923792 7.8831478 V 49.978156 80.03394 H 25.108527 42.333909 Z"
       style="opacity:0.93699999;fill:#002275;fill-opacity:1;stroke:#193882;stroke-width:0.18726344;stroke-opacity:1"
       inkscape:export-xdpi="129.96394"
       inkscape:export-ydpi="129.96394" /><path
       inkscape:connector-curvature="0"
       id="path4563"
       d="m 17.953007,33.977526 c -2.947231,-0.119276 -3.274309,-0.277912 -3.462265,-1.679232 -0.09489,-0.707452 -0.04214,-0.852976 0.519027,-1.431956 l 0.62465,-0.644476 h 28.860433 28.860433 l 0.545753,0.569645 c 0.41496,0.433125 0.545755,0.747278 0.545755,1.310844 0,1.090615 -0.687136,1.709866 -2.091898,1.885233 -1.246957,0.155666 -50.532103,0.146555 -54.401888,-0.01006 z"
       style="opacity:0.93699999;fill:#002275;fill-opacity:1;stroke:#193882;stroke-width:0.18726344;stroke-opacity:1" /><path
       inkscape:connector-curvature="0"
       id="path4565"
       d="m 16.799336,43.337898 c -1.300787,-0.108459 -1.52971,-0.184503 -1.919451,-0.637603 -0.638351,-0.742128 -0.588437,-1.62519 0.138673,-2.453322 l 0.581189,-0.661938 h 21.583994 21.583992 l 0.481816,0.481815 c 0.634014,0.634014 0.781685,1.377469 0.437313,2.201669 -0.555999,1.33069 0.820568,1.252202 -21.41092,1.220787 -10.99982,-0.01554 -20.664293,-0.08368 -21.476606,-0.151408 z"
       style="opacity:0.93699999;fill:#002275;fill-opacity:1;stroke:#193882;stroke-width:0.18726344;stroke-opacity:1" /><path
       inkscape:connector-curvature="0"
       id="path4567"
       d="m 15.042244,51.14619 c -0.645921,-0.666421 -0.78131,-1.418601 -0.404286,-2.24608 0.46437,-1.019181 -0.190203,-0.977012 16.184962,-1.042683 8.342587,-0.03346 15.952692,-0.0042 16.911345,0.0651 2.083545,0.150539 2.619916,0.478383 2.783991,1.701645 0.08959,0.667936 0.02856,0.8525 -0.464307,1.404183 l -0.567451,0.635169 -16.919689,0.05337 -16.919689,0.05337 z"
       style="opacity:0.93699999;fill:#002275;fill-opacity:1;stroke:#193882;stroke-width:0.18726344;stroke-opacity:1" /><path
       inkscape:connector-curvature="0"
       id="path4569"
       d="m 15.018558,60.083866 c -1.177963,-1.341625 -0.547707,-2.835869 1.307231,-3.099251 1.356498,-0.192609 20.800803,-0.190134 21.976446,0.0028 1.794814,0.294541 2.412309,1.958394 1.172704,3.159867 l -0.61752,0.598526 H 27.228583 15.599747 Z"
       style="opacity:0.93699999;fill:#002275;fill-opacity:1;stroke:#193882;stroke-width:0.18726344;stroke-opacity:1" /><path
       inkscape:connector-curvature="0"
       id="path4571"
       d="m 29.418444,73.325815 c 0,-0.187643 0.135881,-0.739956 0.301957,-1.227362 0.166076,-0.487407 0.271412,-0.90563 0.234079,-0.929386 -0.680253,-0.432865 -1.824672,-1.506314 -1.744389,-1.636214 0.05878,-0.09511 0.628581,-0.173047 1.266221,-0.173189 l 1.159345,-2.6e-4 0.334074,-1.136805 c 0.206106,-0.701347 0.421303,-1.108819 0.561791,-1.063745 0.125243,0.04018 0.394547,0.551863 0.598452,1.137065 l 0.370737,1.064004 h 1.163135 c 0.639724,0 1.212954,0.08061 1.273845,0.179133 0.06089,0.09852 -0.313345,0.495719 -0.831634,0.882658 -0.518289,0.386939 -0.942344,0.783467 -0.942344,0.881173 0,0.09771 0.14147,0.626442 0.314378,1.174968 0.172907,0.548526 0.257198,1.0545 0.187313,1.124385 -0.06988,0.06988 -0.583171,-0.187069 -1.140636,-0.571009 l -1.013571,-0.698074 -0.928293,0.666913 c -1.064779,0.764967 -1.16446,0.792851 -1.16446,0.325745 z"
       style="opacity:0.93699999;fill:#002275;fill-opacity:1;stroke:#193882;stroke-width:0.18726344;stroke-opacity:1" /><path
       inkscape:connector-curvature="0"
       id="path4573"
       d="m 15.748213,73.325815 c 0,-0.187643 0.13588,-0.739956 0.301956,-1.227362 0.166076,-0.487407 0.271412,-0.90563 0.234079,-0.929386 -0.680252,-0.432865 -1.824671,-1.506314 -1.744389,-1.636214 0.05878,-0.09511 0.628582,-0.173047 1.266221,-0.173189 l 1.159345,-2.6e-4 0.334075,-1.136805 c 0.206106,-0.701347 0.421302,-1.108819 0.56179,-1.063745 0.125244,0.04018 0.394547,0.551863 0.598452,1.137065 l 0.370737,1.064004 h 1.163135 c 0.639724,0 1.210469,0.07659 1.268321,0.170194 0.103935,0.16817 -0.515455,0.766162 -1.393415,1.345277 l -0.452171,0.298259 0.349473,1.154232 c 0.192211,0.634827 0.293856,1.209849 0.22588,1.277825 -0.06798,0.06798 -0.579701,-0.190539 -1.137165,-0.574479 l -1.013572,-0.698074 -0.928293,0.666913 c -1.064778,0.764967 -1.164459,0.792851 -1.164459,0.325745 z"
       style="opacity:0.93699999;fill:#002275;fill-opacity:1;stroke:#193882;stroke-width:0.18726344;stroke-opacity:1" /><path
       inkscape:connector-curvature="0"
       id="path4575"
       d="m 70.112232,63.6844 c -1.557111,-1.557111 -1.74299,-1.815278 -1.74299,-2.420833 0,-0.509241 0.122728,-0.774381 0.493412,-1.065961 0.802787,-0.631472 1.456654,-0.505862 2.513711,0.482892 0.512149,0.479055 0.956794,0.837197 0.988099,0.795869 0.03131,-0.04133 1.01142,-1.339169 2.178033,-2.884092 1.166613,-1.544924 2.335226,-3.04069 2.596919,-3.323926 0.625032,-0.676486 1.548789,-0.699789 2.193249,-0.05533 0.561046,0.561046 0.581055,1.117914 0.07027,1.955756 -0.783114,1.284546 -5.97661,8.030908 -6.268632,8.142967 -0.875029,0.33578 -1.273539,0.121188 -3.022071,-1.627344 z"
       style="opacity:0.93699999;fill:#002275;fill-opacity:1;stroke:#193882;stroke-width:0.18726344;stroke-opacity:1" /></g></svg>